<svg width="27" height="27" viewBox="0 0 27 27" fill="none" xmlns="http://www.w3.org/2000/svg">
<path d="M26.4893 12.2962L14.7004 0.508469C14.3735 0.182838 13.931 0 13.4696 0C13.0083 0 12.5657 0.182838 12.2389 0.508469L9.7965 2.95534L12.9015 6.06034C13.2678 5.93624 13.6616 5.91737 14.0381 6.00588C14.4147 6.09438 14.7588 6.28672 15.0315 6.56103C15.3041 6.83535 15.4944 7.18064 15.5807 7.55768C15.6669 7.93472 15.6457 8.32839 15.5194 8.69397L18.5096 11.6865C18.9522 11.5326 19.4339 11.5336 19.8758 11.6893C20.3177 11.8449 20.6936 12.1461 20.942 12.5434C21.1904 12.9406 21.2965 13.4105 21.2429 13.876C21.1893 14.3414 20.9793 14.7749 20.6471 15.1053C20.4552 15.2976 20.2272 15.4501 19.9763 15.5542C19.7253 15.6583 19.4563 15.7118 19.1846 15.7118C18.913 15.7118 18.6439 15.6583 18.393 15.5542C18.142 15.4501 17.9141 15.2976 17.7221 15.1053C17.435 14.8166 17.2389 14.4499 17.1581 14.0508C17.0773 13.6516 17.1154 13.2376 17.2676 12.8598L14.4675 10.0743V17.415C14.6655 17.5117 14.8522 17.6433 15.0165 17.8065C15.4012 18.196 15.617 18.7215 15.617 19.269C15.617 19.8165 15.4012 20.3419 15.0165 20.7315C14.8238 20.9243 14.5951 21.0773 14.3433 21.1817C14.0914 21.286 13.8215 21.3397 13.5489 21.3397C13.2764 21.3397 13.0064 21.286 12.7546 21.1817C12.5028 21.0773 12.274 20.9243 12.0814 20.7315C11.8891 20.5398 11.7365 20.312 11.6323 20.0613C11.5282 19.8105 11.4746 19.5416 11.4746 19.2701C11.4746 18.9986 11.5282 18.7297 11.6323 18.4789C11.7365 18.2282 11.8891 18.0004 12.0814 17.8087C12.2861 17.6062 12.5167 17.4532 12.762 17.352V9.93934C12.5095 9.8361 12.2799 9.6838 12.0866 9.49124C11.8933 9.29869 11.7401 9.06971 11.6359 8.81756C11.5317 8.56542 11.4785 8.2951 11.4795 8.02227C11.4805 7.74944 11.5355 7.47951 11.6415 7.22809L8.5905 4.16247L0.50625 12.2411C-0.16875 12.9217 -0.16875 14.0231 0.50625 14.7037L12.2963 26.4903C12.4577 26.6519 12.6494 26.7801 12.8603 26.8675C13.0713 26.955 13.2975 27 13.5259 27C13.7543 27 13.9804 26.955 14.1914 26.8675C14.4024 26.7801 14.5941 26.6519 14.7555 26.4903L26.4893 14.7566C26.6511 14.5952 26.7796 14.4035 26.8672 14.1924C26.9548 13.9813 27 13.755 27 13.5264C27 13.2978 26.9548 13.0715 26.8672 12.8604C26.7796 12.6493 26.6511 12.4576 26.4893 12.2962Z" fill="#424242"/>
</svg>
