<svg width="198" height="31" viewBox="0 0 198 31" fill="none" xmlns="http://www.w3.org/2000/svg">
<path d="M41.0039 25V22.5977H58.5586C59.7148 22.5977 60.6367 22.2891 61.3242 21.6719C62.0195 21.0547 62.3672 20.1523 62.3672 18.9648C62.3672 17.7773 62.0195 16.8789 61.3242 16.2695C60.6367 15.6523 59.7148 15.3438 58.5586 15.3438H46.7344C45.5 15.3438 44.4062 15.1133 43.4531 14.6523C42.5 14.1914 41.7539 13.543 41.2148 12.707C40.6758 11.8633 40.4062 10.8711 40.4062 9.73047C40.4062 8.58984 40.6758 7.58984 41.2148 6.73047C41.7539 5.87109 42.5 5.20313 43.4531 4.72656C44.4062 4.24219 45.5 4 46.7344 4H64.2305V6.40234H46.7344C45.8203 6.40234 45.0781 6.5625 44.5078 6.88281C43.9375 7.20312 43.5195 7.61719 43.2539 8.125C42.9961 8.63281 42.8672 9.16797 42.8672 9.73047C42.8672 10.2852 42.9961 10.8047 43.2539 11.2891C43.5195 11.7734 43.9375 12.1641 44.5078 12.4609C45.0781 12.7578 45.8203 12.9062 46.7344 12.9062H58.5586C59.7461 12.9062 60.8125 13.1445 61.7578 13.6211C62.7031 14.0977 63.4492 14.7852 63.9961 15.6836C64.5508 16.5742 64.8281 17.6406 64.8281 18.8828C64.8281 20.1172 64.5508 21.1953 63.9961 22.1172C63.4492 23.0312 62.7031 23.7422 61.7578 24.25C60.8125 24.75 59.7461 25 58.5586 25H41.0039ZM72.7852 25C71.8086 25 70.9102 24.832 70.0898 24.4961C69.2773 24.1523 68.625 23.6406 68.1328 22.9609C67.6484 22.2734 67.4062 21.4219 67.4062 20.4062C67.4062 19.3828 67.6484 18.5352 68.1328 17.8633C68.625 17.1914 69.2852 16.6875 70.1133 16.3516C70.9414 16.0156 71.8594 15.8477 72.8672 15.8477H81.9023V15.5547C81.9023 14.6484 81.5703 13.8867 80.9062 13.2695C80.2422 12.6523 79.1836 12.3438 77.7305 12.3438H68.3086V10H77.7305C79.0664 10 80.2266 10.2383 81.2109 10.7148C82.1953 11.1914 82.957 11.8477 83.4961 12.6836C84.0352 13.5117 84.3047 14.4688 84.3047 15.5547V25H81.9023V23.5469H81.668C81.3086 23.9219 80.918 24.2148 80.4961 24.4258C80.082 24.6367 79.6445 24.7852 79.1836 24.8711C78.7227 24.957 78.2383 25 77.7305 25H72.7852ZM77.7305 22.6562C79.1836 22.6562 80.2422 22.3359 80.9062 21.6953C81.5703 21.0469 81.9023 20.1992 81.9023 19.1523V18.1914H72.75C71.8359 18.1914 71.1172 18.3867 70.5938 18.7773C70.0703 19.1602 69.8086 19.7031 69.8086 20.4062C69.8086 21.1172 70.0664 21.6719 70.582 22.0703C71.0977 22.4609 71.7812 22.6562 72.6328 22.6562H77.7305ZM96.8789 25C95.5508 25 94.3945 24.7578 93.4102 24.2734C92.4258 23.7891 91.6602 23.1094 91.1133 22.2344C90.5742 21.3594 90.3047 20.332 90.3047 19.1523V11.2539H90.0703C90.0703 11.4258 89.9336 11.6523 89.6602 11.9336C89.3867 12.207 89.0117 12.3438 88.5352 12.3438H86.4141V10H90.3047V5.80469H92.707V11.0898H92.9414C92.9414 10.918 93.0781 10.6953 93.3516 10.4219C93.625 10.1406 94 10 94.4766 10H103.898V12.3438H92.707V19.1523C92.707 20.1992 93.0391 21.0469 93.7031 21.6953C94.3672 22.3359 95.4258 22.6562 96.8789 22.6562H104.496V25H96.8789ZM113.438 25C112.109 25 110.953 24.7578 109.969 24.2734C108.984 23.7891 108.219 23.1094 107.672 22.2344C107.133 21.3594 106.863 20.332 106.863 19.1523V11.2539H106.629C106.629 11.4258 106.492 11.6523 106.219 11.9336C105.945 12.207 105.57 12.3438 105.094 12.3438H102.973V10H106.863V5.80469H109.266V11.0898H109.5C109.5 10.918 109.637 10.6953 109.91 10.4219C110.184 10.1406 110.559 10 111.035 10H120.457V12.3438H109.266V19.1523C109.266 20.1992 109.598 21.0469 110.262 21.6953C110.926 22.3359 111.984 22.6562 113.438 22.6562H121.055V25H113.438ZM127.723 25C126.746 25 125.848 24.832 125.027 24.4961C124.215 24.1523 123.562 23.6406 123.07 22.9609C122.586 22.2734 122.344 21.4219 122.344 20.4062C122.344 19.3828 122.586 18.5352 123.07 17.8633C123.562 17.1914 124.223 16.6875 125.051 16.3516C125.879 16.0156 126.797 15.8477 127.805 15.8477H136.84V15.5547C136.84 14.6484 136.508 13.8867 135.844 13.2695C135.18 12.6523 134.121 12.3438 132.668 12.3438H123.246V10H132.668C134.004 10 135.164 10.2383 136.148 10.7148C137.133 11.1914 137.895 11.8477 138.434 12.6836C138.973 13.5117 139.242 14.4688 139.242 15.5547V25H136.84V23.5469H136.605C136.246 23.9219 135.855 24.2148 135.434 24.4258C135.02 24.6367 134.582 24.7852 134.121 24.8711C133.66 24.957 133.176 25 132.668 25H127.723ZM132.668 22.6562C134.121 22.6562 135.18 22.3359 135.844 21.6953C136.508 21.0469 136.84 20.1992 136.84 19.1523V18.1914H127.688C126.773 18.1914 126.055 18.3867 125.531 18.7773C125.008 19.1602 124.746 19.7031 124.746 20.4062C124.746 21.1172 125.004 21.6719 125.52 22.0703C126.035 22.4609 126.719 22.6562 127.57 22.6562H132.668ZM142.992 25V10H145.383V11.4414H145.617C145.984 11.0742 146.375 10.7852 146.789 10.5742C147.203 10.3633 147.641 10.2148 148.102 10.1289C148.562 10.043 149.047 10 149.555 10H150.363C151.699 10 152.859 10.2422 153.844 10.7266C154.828 11.2109 155.59 11.8906 156.129 12.7656C156.668 13.6406 156.938 14.668 156.938 15.8477H154.535C154.535 14.8008 154.203 13.957 153.539 13.3164C152.883 12.668 151.824 12.3438 150.363 12.3438H149.555C148.102 12.3438 147.043 12.668 146.379 13.3164C145.715 13.957 145.383 14.8008 145.383 15.8477V25H142.992ZM166.207 25C164.613 25 163.227 24.7227 162.047 24.168C160.867 23.6133 159.953 22.7812 159.305 21.6719C158.664 20.5625 158.344 19.1719 158.344 17.5C158.344 15.8281 158.664 14.4375 159.305 13.3281C159.953 12.2188 160.867 11.3867 162.047 10.832C163.227 10.2773 164.613 10 166.207 10H169.57C171.172 10 172.559 10.2773 173.73 10.832C174.91 11.3867 175.82 12.2188 176.461 13.3281C177.109 14.4375 177.434 15.8281 177.434 17.5C177.434 19.1719 177.109 20.5625 176.461 21.6719C175.82 22.7812 174.91 23.6133 173.73 24.168C172.559 24.7227 171.172 25 169.57 25H166.207ZM169.57 22.6562C173.211 22.6562 175.031 20.9375 175.031 17.5C175.031 14.0625 173.211 12.3438 169.57 12.3438H166.207C162.566 12.3438 160.746 14.0625 160.746 17.5C160.746 20.9375 162.566 22.6562 166.207 22.6562H169.57ZM186.316 25L178.125 10H180.855L186.691 20.8516C186.84 21.1172 186.969 21.3789 187.078 21.6367C187.195 21.8945 187.285 22.1211 187.348 22.3164C187.418 22.5117 187.453 22.6445 187.453 22.7148H187.688C187.688 22.6445 187.719 22.5117 187.781 22.3164C187.852 22.1211 187.941 21.8945 188.051 21.6367C188.168 21.3789 188.297 21.1172 188.438 20.8516L194.18 10H196.852L188.719 25H186.316Z" fill="#424242"/>
<line x1="32" y1="4" x2="32" y2="25" stroke="#424242" stroke-width="2"/>
<path d="M21.0337 9.54398C22.2091 11.6889 22.5822 14.1824 22.0862 16.5774C21.5901 18.9725 20.2572 21.1126 18.3265 22.6142C16.3958 24.1157 13.9934 24.8806 11.55 24.7718C9.1065 24.6629 6.78167 23.6874 4.99214 22.0201C3.20261 20.3528 2.06537 18.1026 1.78424 15.6729C1.5031 13.2433 2.09646 10.7929 3.45796 8.76094C4.81946 6.72902 6.8601 5.24839 9.21414 4.58442C11.5682 3.92045 14.0818 4.11655 16.3044 5.13756" stroke="#424242" stroke-linecap="round" stroke-linejoin="round"/>
<path d="M17.6815 16.3333C17.6815 16.3333 19.1381 12.3246 16.4251 10.2287C15.0422 9.16017 14.7092 7.48452 15.4054 6.27846C15.6181 5.90988 15.9013 5.58681 16.2389 5.32772C16.5764 5.06863 16.9617 4.87858 17.3728 4.76845C17.7838 4.65832 18.2125 4.63025 18.6344 4.68586C19.0562 4.74146 19.463 4.87965 19.8315 5.09252C21.3811 5.98713 21.5752 7.94165 21.0174 9.51858C18.7927 14.2044 15.5362 21.9309 12.4394 21.4235C10.6234 21.1264 12.1552 14.6394 12.1552 14.6394C9.90412 21.2907 6.21262 23.0229 5.15319 22.1978C4.09375 21.3727 4.38412 18.8288 5.69896 16.3424C6.52905 14.6332 7.02014 12.7793 7.14508 10.8833" stroke="#424242" stroke-linecap="round" stroke-linejoin="round"/>
</svg>
