<svg width="32" height="27" viewBox="0 0 32 27" fill="none" xmlns="http://www.w3.org/2000/svg">
<path d="M10.2375 0.375H21.2625C25.4625 0.375 28.875 3.7875 28.875 7.9875V19.0125C28.875 21.0315 28.073 22.9677 26.6454 24.3954C25.2177 25.823 23.2815 26.625 21.2625 26.625H10.2375C6.0375 26.625 2.625 23.2125 2.625 19.0125V7.9875C2.625 5.96854 3.42703 4.03227 4.85465 2.60465C6.28227 1.17703 8.21854 0.375 10.2375 0.375ZM9.975 3C8.72185 3 7.52003 3.49781 6.63392 4.38392C5.74781 5.27003 5.25 6.47185 5.25 7.725V19.275C5.25 21.8869 7.36313 24 9.975 24H21.525C22.7781 24 23.98 23.5022 24.8661 22.6161C25.7522 21.73 26.25 20.5281 26.25 19.275V7.725C26.25 5.11313 24.1369 3 21.525 3H9.975ZM22.6406 4.96875C23.0757 4.96875 23.493 5.1416 23.8007 5.44928C24.1084 5.75696 24.2813 6.17425 24.2813 6.60938C24.2813 7.0445 24.1084 7.4618 23.8007 7.76947C23.493 8.07715 23.0757 8.25 22.6406 8.25C22.2055 8.25 21.7882 8.07715 21.4805 7.76947C21.1729 7.4618 21 7.0445 21 6.60938C21 6.17425 21.1729 5.75696 21.4805 5.44928C21.7882 5.1416 22.2055 4.96875 22.6406 4.96875ZM15.75 6.9375C17.4905 6.9375 19.1597 7.6289 20.3904 8.85961C21.6211 10.0903 22.3125 11.7595 22.3125 13.5C22.3125 15.2405 21.6211 16.9097 20.3904 18.1404C19.1597 19.3711 17.4905 20.0625 15.75 20.0625C14.0095 20.0625 12.3403 19.3711 11.1096 18.1404C9.8789 16.9097 9.1875 15.2405 9.1875 13.5C9.1875 11.7595 9.8789 10.0903 11.1096 8.85961C12.3403 7.6289 14.0095 6.9375 15.75 6.9375ZM15.75 9.5625C14.7057 9.5625 13.7042 9.97734 12.9658 10.7158C12.2273 11.4542 11.8125 12.4557 11.8125 13.5C11.8125 14.5443 12.2273 15.5458 12.9658 16.2842C13.7042 17.0227 14.7057 17.4375 15.75 17.4375C16.7943 17.4375 17.7958 17.0227 18.5342 16.2842C19.2727 15.5458 19.6875 14.5443 19.6875 13.5C19.6875 12.4557 19.2727 11.4542 18.5342 10.7158C17.7958 9.97734 16.7943 9.5625 15.75 9.5625Z" fill="#424242"/>
</svg>
