<svg width="32" height="28" viewBox="0 0 32 28" fill="none" xmlns="http://www.w3.org/2000/svg">
<path d="M16 0.666687C8.64 0.666687 2.66666 6.64002 2.66666 14C2.66666 21.36 8.64 27.3334 16 27.3334C23.36 27.3334 29.3333 21.36 29.3333 14C29.3333 6.64002 23.36 0.666687 16 0.666687ZM22.1867 9.73335C21.9867 11.84 21.12 16.96 20.68 19.32C20.4933 20.32 20.12 20.6534 19.7733 20.6934C19 20.76 18.4133 20.1867 17.6667 19.6934C16.4933 18.92 15.8267 18.44 14.6933 17.6934C13.3733 16.8267 14.2267 16.3467 14.9867 15.5734C15.1867 15.3734 18.6 12.2667 18.6667 11.9867C18.6759 11.9443 18.6747 11.9002 18.6631 11.8584C18.6515 11.8166 18.6298 11.7782 18.6 11.7467C18.52 11.68 18.4133 11.7067 18.32 11.72C18.2 11.7467 16.3333 12.9867 12.6933 15.44C12.16 15.8 11.68 15.9867 11.2533 15.9734C10.7733 15.96 9.86666 15.7067 9.18666 15.48C8.34666 15.2134 7.69333 15.0667 7.74666 14.6C7.77333 14.36 8.10666 14.12 8.73333 13.8667C12.6267 12.1734 15.2133 11.0534 16.5067 10.52C20.2133 8.97335 20.9733 8.70669 21.48 8.70669C21.5867 8.70669 21.84 8.73335 22 8.86669C22.1333 8.97335 22.1733 9.12002 22.1867 9.22669C22.1733 9.30669 22.2 9.54669 22.1867 9.73335Z" fill="#424242"/>
</svg>
