<svg width="16" height="10" viewBox="0 0 16 10" fill="none" xmlns="http://www.w3.org/2000/svg">
<path fill-rule="evenodd" clip-rule="evenodd" d="M6.93988 0.940023C7.22113 0.659122 7.60238 0.501343 7.99988 0.501343C8.39738 0.501343 8.77863 0.659122 9.05988 0.940023L14.7179 6.59602C14.8571 6.73536 14.9676 6.90075 15.043 7.08278C15.1183 7.2648 15.1571 7.45988 15.157 7.65688C15.157 7.85388 15.1181 8.04894 15.0427 8.23092C14.9672 8.41291 14.8567 8.57826 14.7174 8.71752C14.578 8.85679 14.4126 8.96725 14.2306 9.04259C14.0486 9.11794 13.8535 9.1567 13.6565 9.15665C13.4595 9.1566 13.2645 9.11776 13.0825 9.04232C12.9005 8.96689 12.7351 8.85636 12.5959 8.71702L7.99988 4.12202L3.40388 8.71802C3.26558 8.86135 3.10011 8.9757 2.91715 9.0544C2.73418 9.1331 2.53737 9.17457 2.3382 9.17639C2.13903 9.17822 1.9415 9.14036 1.75712 9.06502C1.57274 8.98969 1.40521 8.87839 1.2643 8.73762C1.1234 8.59685 1.01194 8.42942 0.936432 8.24511C0.860924 8.0608 0.822877 7.8633 0.824514 7.66413C0.82615 7.46497 0.867436 7.26812 0.945962 7.08507C1.02449 6.90203 1.13868 6.73646 1.28188 6.59802L6.93988 0.940023Z" fill="black"/>
</svg>
