<svg width="27" height="27" viewBox="0 0 27 27" fill="none" xmlns="http://www.w3.org/2000/svg">
<path d="M1.89 1.89C3.57628e-07 3.798 0 6.849 0 12.96V14.04C0 20.142 3.57628e-07 23.193 1.89 25.11C3.798 27 6.849 27 12.96 27H14.04C20.142 27 23.193 27 25.11 25.11C27 23.202 27 20.151 27 14.04V12.96C27 6.858 27 3.807 25.11 1.89C23.202 3.57628e-07 20.151 0 14.04 0H12.96C6.858 0 3.807 3.57628e-07 1.89 1.89ZM4.554 8.217H7.65C7.749 13.365 10.017 15.543 11.817 15.993V8.217H14.724V12.654C16.497 12.465 18.369 10.44 18.999 8.208H21.897C21.6605 9.36333 21.1884 10.4575 20.5102 11.4222C19.832 12.3869 18.9621 13.2015 17.955 13.815C19.0792 14.3743 20.0719 15.1656 20.8678 16.1368C21.6636 17.108 22.2445 18.2369 22.572 19.449H19.377C18.693 17.316 16.983 15.66 14.724 15.435V19.449H14.364C8.208 19.449 4.698 15.237 4.554 8.217Z" fill="#424242"/>
</svg>
