<svg width="31" height="28" viewBox="0 0 31 28" fill="none" xmlns="http://www.w3.org/2000/svg">
<path d="M15.5013 0.519226C22.6352 0.519226 28.418 6.33072 28.418 13.5C28.418 20.6693 22.6352 26.4808 15.5013 26.4808C13.2186 26.4847 10.976 25.8776 9.00421 24.7219L2.5898 26.4808L4.33613 20.0319C3.1852 18.0497 2.58063 15.795 2.58463 13.5C2.58463 6.33072 8.36742 0.519226 15.5013 0.519226ZM11.0993 7.39903L10.841 7.40942C10.6739 7.42098 10.5107 7.46507 10.3605 7.53923C10.2204 7.61907 10.0925 7.71875 9.98071 7.83519C9.82571 7.98187 9.73788 8.10908 9.64359 8.2324C9.16583 8.85665 8.90859 9.62305 8.9125 10.4106C8.91509 11.0466 9.08042 11.6658 9.33875 12.2448C9.86705 13.4156 10.7363 14.6553 11.8833 15.8041C12.1598 16.0806 12.431 16.3584 12.7229 16.6167C14.1482 17.8776 15.8465 18.787 17.6829 19.2725L18.4166 19.3855C18.6555 19.3985 18.8945 19.3803 19.1348 19.3686C19.5109 19.3487 19.8781 19.2463 20.2107 19.0687C20.3797 18.9809 20.5448 18.8856 20.7054 18.7832C20.7054 18.7832 20.7601 18.746 20.8669 18.6663C21.0413 18.5365 21.1485 18.4444 21.2931 18.2925C21.4016 18.18 21.492 18.0493 21.5644 17.9005C21.6651 17.6889 21.7659 17.2852 21.8072 16.949C21.8382 16.692 21.8292 16.5518 21.8253 16.4648C21.8201 16.3259 21.7052 16.1818 21.5799 16.1208L20.8281 15.782C20.8281 15.782 19.7044 15.29 19.0172 14.9759C18.9453 14.9444 18.8682 14.9264 18.7899 14.9227C18.7015 14.9134 18.6122 14.9233 18.5279 14.9517C18.4437 14.9802 18.3665 15.0265 18.3016 15.0875C18.2952 15.0849 18.2086 15.1589 17.2748 16.2961C17.2212 16.3684 17.1473 16.4231 17.0627 16.4532C16.978 16.4832 16.8864 16.4873 16.7994 16.4648C16.7152 16.4423 16.6328 16.4136 16.5527 16.3791C16.3925 16.3116 16.337 16.2857 16.2272 16.2389C15.4856 15.9143 14.7992 15.475 14.1928 14.937C14.0301 14.7942 13.879 14.6384 13.724 14.4878C13.2158 13.9987 12.773 13.4455 12.4065 12.8419L12.3303 12.7186C12.2763 12.6352 12.2321 12.5459 12.1985 12.4524C12.1494 12.2616 12.2773 12.1085 12.2773 12.1085C12.2773 12.1085 12.5912 11.7632 12.7371 11.5762C12.8792 11.3945 12.9993 11.218 13.0768 11.0921C13.2293 10.8454 13.277 10.5923 13.197 10.3963C12.8353 9.50841 12.4616 8.62528 12.0758 7.74692C11.9996 7.57298 11.7735 7.44836 11.5682 7.4237C11.4984 7.41504 11.4287 7.40812 11.3589 7.40293C11.1855 7.39293 11.0116 7.39467 10.8384 7.40812L11.0993 7.39903Z" fill="#424242"/>
</svg>
